<svg xmlns="http://www.w3.org/2000/svg" viewBox="0 0 851.22 837.75"><defs><style>.cls-1{fill:#fff;}</style></defs><g id="Camada_2" data-name="Camada 2"><g id="ICO"><path class="cls-1" d="M478,309.49,452.27,369l32.9,76.56H252.92L364.05,180.29a90.73,90.73,0,1,0-42.82-19.82l-121.83,285h-1.54v3.62l-18.59,43.49H533v-.11h23.65ZM379.56,39.71a51.15,51.15,0,1,1-51.15,51.14A51.14,51.14,0,0,1,379.56,39.71Z"/><path class="cls-1" d="M549.65,69.65l-51.23.11L779.65,724.13H653.22L600.3,597.61H305.53L251.77,724.13H178.71a90.81,90.81,0,1,0-.4,47.11H285.68l53-126.51H570.12l49,126.52H799.89l51.33.12ZM90.85,798A51.15,51.15,0,1,1,142,746.9,51.14,51.14,0,0,1,90.85,798Z"/></g></g></svg>