<?xml version="1.0" encoding="utf-8"?>
<!-- Generator: Adobe Illustrator 26.2.1, SVG Export Plug-In . SVG Version: 6.00 Build 0)  -->
<svg version="1.1" id="Camada_1" xmlns="http://www.w3.org/2000/svg" xmlns:xlink="http://www.w3.org/1999/xlink" x="0px" y="0px"
	 viewBox="0 0 2313.6 405.5" style="enable-background:new 0 0 2313.6 405.5;" xml:space="preserve">
<style type="text/css">
	.st0{fill:#FFFFFF;}
	.st1{enable-background:new    ;}
</style>
<g id="Camada_2_00000046303850152439246600000002550321653301798334_">
	<g id="horizontal">
		<path class="st0" d="M549.8,161.7l-12.4,36.8h-33.9l54.1-159.2h43.2l56.4,159.2h-36.2L608,161.7H549.8z M600.6,133.5
			c-11.3-33.6-18.5-55.1-22.4-69.4H578c-3.9,15.7-11.9,40.7-20.9,69.4H600.6z"/>
		<path class="st0" d="M811.4,138.7c0-27.2,0.4-57.6,1.1-75.6h-1.1c-7.5,32.5-23.5,85.6-38.7,135.4h-29.3
			c-11.6-43.6-28.1-104-35.1-135.8h-1.1c1.4,18.7,2,51.4,2,78.8v57H678V39.2h51.2c12.4,41.6,26.3,93.8,31.1,117.5h0.3
			c3.8-20.9,21.4-76.8,34.6-117.5h49.4v159.2h-33.2V138.7z"/>
		<path class="st0" d="M912.5,161.7L900,198.5h-33.8l54.1-159.2h43.2l56.4,159.2h-36.2l-13.1-36.8H912.5z M963.2,133.5
			c-11.3-33.6-18.5-55.1-22.4-69.4h-0.2c-3.9,15.7-11.9,40.7-20.9,69.4H963.2z"/>
		<path class="st0" d="M1074,134.7v63.7h-33.7V39.2h70c34.7,0,53.4,19.1,53.4,43.7c0,21.4-11.6,33-23.2,37.7
			c7.9,2.9,19.8,11.1,19.8,39.6v7.9c0,10.7,0.1,22.9,2.3,30.4h-32.6c-2.8-6.9-3.3-18.9-3.3-35.8v-2.3c0-17.4-4.4-25.7-30.1-25.7
			L1074,134.7z M1074,107.3h28.9c18.9,0,26.1-7.2,26.1-20.5c0-13-8.5-20.2-25.3-20.2H1074V107.3z"/>
		<path class="st0" d="M1340.8,118.3c0,44.3-26.6,82.5-78.3,82.5c-50,0-76.1-36.3-76.1-81.9c0-46.3,28.9-81.9,78.4-81.9
			C1311.3,36.9,1340.8,69.6,1340.8,118.3z M1221.9,118.2c0,31.1,13.7,54.6,41.9,54.6c30.6,0,41.5-25.6,41.5-54
			c0-30.1-12.3-53.8-42-53.8C1234.4,65,1221.9,87.2,1221.9,118.2z"/>
		<path class="st0" d="M1426.8,198.5V39.2h42.7c19.9,35.8,56.7,100.2,64,117.6h0.4c-1.8-16.6-1.8-44.3-1.8-70.4V39.2h31.2v159.2
			h-40.5c-17.1-31.1-57.8-105.2-65.7-123.6h-0.4c1.2,13.9,1.5,46.6,1.5,75.2v48.4L1426.8,198.5z"/>
		<path class="st0" d="M1711,129.8h-76.2v40.4h84l-4.1,28.2h-113.3V39.2h112.9v28.2h-79.5v34.1h76.1V129.8z"/>
		<path class="st0" d="M1781.5,67.5h-48.4V39.2h131.1v28.2H1816v131h-34.5V67.5z"/>
		<path class="st0" d="M1928.9,67.5h-48.4V39.2h131v28.2h-48.2v131h-34.4V67.5z"/>
		<path class="st0" d="M2174.4,118.3c0,44.3-26.6,82.5-78.3,82.5c-50,0-76.1-36.3-76.1-81.9c0-46.3,28.9-81.9,78.4-81.9
			C2144.9,36.9,2174.4,69.6,2174.4,118.3z M2055.5,118.2c0,31.1,13.6,54.6,41.9,54.6c30.6,0,41.5-25.6,41.5-54
			c0-30.1-12.3-53.8-42-53.8C2068.1,65,2055.5,87.2,2055.5,118.2z"/>
		<g class="st1">
			<path class="st0" d="M579.1,343.2c0,15.7-15,28.5-33.4,28.5h-8.8c-18.3,0-33.4-12.7-33.4-28.5c0-0.1,0-0.3,0-0.6l0.1-4h11.3
				l-0.1,4.6c-0.3,9.7,10,17.6,22.1,17.6h8.8c12.1,0,22.1-7.9,22.1-17.6c0-9.8-10-17.8-22.1-17.8h-0.3c-0.3,0-0.9,0-1.4,0h-2.3
				c-5.9-0.3-13.9-1-18.2-3.6c-11.4-6.6-16.9-14.7-16.9-25c0-15.6,15-28.5,33.4-28.5h2.6c17.8,0,32.5,11.8,33.4,27l0.3,4.3h-11.3
				l-0.3-3.9c-0.7-9.4-10.4-16.6-22.1-16.6h-2.6c-12.1,0-22,7.9-22,17.6c0,9.5,9.2,17.5,20.8,17.8h0.7h0.3h4.3v0.1
				c4.9,0.1,7.4,0.3,7.5,0.4h0.4C567.8,317,579.1,329.4,579.1,343.2z"/>
			<path class="st0" d="M823.1,319.8c0,28.3-23,51.3-51.1,51.3c-28.3,0-51.3-23-51.3-51.3s23-51.3,51.3-51.3
				C800.1,268.5,823.1,291.5,823.1,319.8z M812.5,319.8c0-22.4-18.2-40.6-40.6-40.6c-22.4,0-40.6,18.2-40.6,40.6
				s18.2,40.7,40.6,40.7C794.3,360.5,812.5,342.2,812.5,319.8z"/>
			<path class="st0" d="M1033,360.9v10.7h-68.3V268.3h10.8v92.6H1033z"/>
			<path class="st0" d="M1245.2,268.3h10.7V331c0,22.4-18.2,40.6-40.6,40.6c-21.1,0-38.4-16-40.6-36.5h-0.1v-4v-62.7h10.8v63.1
				c0,16.3,13.6,29.5,29.9,29.5c16.2,0,29.9-13.1,29.9-29.3V331V268.3z"/>
			<path class="st0" d="M1488,333.1h11.1c-5.5,21.8-24.6,37.4-46.9,38.6v2.2c0.6-0.1,1.3-0.1,2.2-0.1c6.6,0,12.3,5.5,12.3,12.3
				c0,6.8-5.6,12.3-12.3,12.3c-5.8,0-10.7-3.9-12-9.4h9.2c0.7,0.7,1.7,1,2.7,1c2.2,0,3.9-1.7,3.9-3.9s-1.7-3.9-3.9-3.9
				c-1.2,0-2.2,0.4-3,1.3v0.1h-8.2v-2v-9.8c-25.7-3-45.6-25-45.6-51.4c0-28.6,23.3-51.9,51.7-51.9c24.1,0,44.9,16.8,50.4,40h-11.1
				c-5.2-17.2-21.1-29.3-39.3-29.3c-22.5,0-41,18.5-41,41.2c0,22.5,18.5,41,41,41C1466.9,361.2,1482.5,349.7,1488,333.1z"/>
			<path class="st0" d="M1742.8,319.8c0,28.3-23,51.3-51.1,51.3c-28.3,0-51.3-23-51.3-51.3s23-51.3,51.3-51.3
				C1719.9,268.5,1742.8,291.5,1742.8,319.8z M1732.3,319.8c0-22.4-18.2-40.6-40.6-40.6s-40.6,18.2-40.6,40.6s18.2,40.7,40.6,40.7
				S1732.3,342.2,1732.3,319.8z M1705.9,255.3l-0.7,1.2c-2,3-4.5,4.6-7.4,4.6c-2.3,0-4.3-1-5.9-1.9c-1.6-0.9-3.2-1.6-5.3-1.6
				c-0.7,0-1.6,0.1-2.6,2l-1.7,2.9l-3.5-5.5l0.6-1c1.9-3.2,4.3-4.8,7.5-4.8c2,0,4.3,0.9,6.4,1.7c3.3,1.6,4.3,1.7,4.6,1.7
				c1,0,1.9-0.6,2.9-2.3l1.7-2.5L1705.9,255.3z"/>
			<path class="st0" d="M1886.9,268.3h68v10.8h-57.2v35.4h41.7v10.8h-41.7v35.4h57.2v10.8h-68V268.3z"/>
			<path class="st0" d="M2172,343.2c0,15.7-15,28.5-33.4,28.5h-8.8c-18.3,0-33.4-12.7-33.4-28.5c0-0.1,0-0.3,0-0.6l0.1-4h11.3
				l-0.1,4.6c-0.3,9.7,10,17.6,22.1,17.6h8.8c12.1,0,22.1-7.9,22.1-17.6c0-9.8-10-17.8-22.1-17.8h-0.3c-0.3,0-0.9,0-1.4,0h-2.3
				c-5.9-0.3-13.9-1-18.2-3.6c-11.4-6.6-16.9-14.7-16.9-25c0-15.6,15-28.5,33.4-28.5h2.6c17.8,0,32.5,11.8,33.4,27l0.3,4.3h-11.3
				l-0.3-3.9c-0.7-9.4-10.4-16.6-22.1-16.6h-2.6c-12.1,0-22,7.9-22,17.6c0,9.5,9.2,17.5,20.8,17.8h0.7h0.3h4.3v0.1
				c4.9,0.1,7.4,0.3,7.5,0.4h0.4C2160.8,317,2172,329.4,2172,343.2z"/>
		</g>
		<path class="st0" d="M231.3,149.8l-12.4,28.8l15.9,37.1H122.4l53.8-128.4c23.9,4.1,46.6-11.9,50.7-35.8
			C231,27.5,215,4.8,191.1,0.7s-46.6,11.9-50.7,35.8c-2.7,15.4,3.1,31.1,15.1,41.1l-59,138h-0.7v1.7l-9,21H258l0,0h11.4L231.3,149.8
			z M183.7,19.2c13.7,0,24.7,11.1,24.7,24.8c0,13.7-11.1,24.7-24.8,24.7C170,68.7,159,57.7,158.9,44C158.9,30.3,170,19.2,183.7,19.2
			C183.7,19.2,183.7,19.2,183.7,19.2z"/>
		<path class="st0" d="M266,33.7h-24.8l136.1,316.7h-61.2l-25.6-61.2H147.9l-26,61.2H86.5c-6.1-23.5-30.1-37.6-53.6-31.5
			S-4.7,349,1.4,372.5C7.5,396,31.5,410.1,55,404c15.2-3.9,27.1-15.7,31.3-30.8h52l25.6-61.2h112l23.7,61.2h87.5l24.8,0L266,33.7z
			 M44,386.2c-13.7,0-24.8-11.1-24.8-24.8s11.1-24.8,24.8-24.8s24.8,11.1,24.8,24.8c0,0,0,0,0,0C68.8,375.1,57.7,386.2,44,386.2z"/>
	</g>
</g>
</svg>
