<svg xmlns="http://www.w3.org/2000/svg" viewBox="0 0 958.67 941.69"><defs><style>.cls-1{font-size:76.51px;font-family:Neou-Bold, Neou;font-weight:700;letter-spacing:0.9em;}</style></defs><g id="Camada_2" data-name="Camada 2"><g id="Logo"><path d="M468.43,259.58l-21.55,49.87,27.57,64.22H279.82L373,151.21a76.08,76.08,0,1,0-35.88-16.62L235,373.67h-1.3v3l-15.58,36.48H514.53v-.09h19.82ZM386,33.3a42.9,42.9,0,1,1-42.87,42.9A42.88,42.88,0,0,1,386,33.3Z"/><path d="M528.49,58.42l-42.94.09L721.23,607.35h-106L570.93,501.23h-247L278.86,607.35H217.63a76.18,76.18,0,1,0-.34,39.51h90l44.42-106.11h194l41.08,106.11H738.19l43,.1ZM144,669.35a42.9,42.9,0,1,1,42.86-42.9A42.88,42.88,0,0,1,144,669.35Z"/><path d="M24.51,813l-6.58,19.49H0l28.64-84.33h22.9l29.87,84.33H62.24L55.31,813Zm26.88-14.94c-6-17.8-9.8-29.17-11.84-36.74h-.12c-2.08,8.3-6.29,21.54-11.09,36.74Z"/><path d="M163,800.88c0-14.39.23-30.52.6-40h-.58c-4,17.21-12.4,45.3-20.48,71.69H127.05c-6.15-23.08-14.87-55.08-18.57-71.92h-.57c.72,9.89,1.07,27.24,1.07,41.71v30.21H92.36V748.19H119.5c6.57,22,13.94,49.67,16.48,62.24h.14c2.06-11.08,11.32-40.64,18.36-62.24h26.15v84.33H163Z"/><path d="M216.54,813,210,832.52H192l28.64-84.33h22.9l29.88,84.33H254.28L247.35,813Zm26.88-14.94c-6-17.8-9.8-29.17-11.84-36.74h-.12c-2.08,8.3-6.29,21.54-11.09,36.74Z"/><path d="M302.09,798.76v33.76H284.27V748.19h37.06c18.38,0,28.28,10.12,28.28,23.15,0,11.31-6.16,17.44-12.25,19.95,4.18,1.54,10.48,5.89,10.48,21v4.17c0,5.67,0,12.13,1.21,16.08H331.77c-1.49-3.67-1.77-10-1.77-18.94v-1.23c0-9.22-2.33-13.59-15.91-13.59Zm0-14.51h15.29c10,0,13.83-3.8,13.83-10.85,0-6.86-4.48-10.7-13.4-10.7H302.09Z"/><path d="M443.37,790.06c0,23.47-14.1,43.68-41.48,43.68-26.47,0-40.32-19.23-40.32-43.39,0-24.54,15.3-43.39,41.49-43.39C427.74,747,443.37,764.25,443.37,790.06Zm-63-.08c0,16.47,7.22,28.92,22.18,28.92,16.21,0,22-13.58,22-28.61,0-15.95-6.54-28.49-22.26-28.49C387.05,761.8,380.4,773.56,380.4,790Z"/><path d="M488.9,832.52V748.19h22.6c10.54,18.93,30,53.08,33.88,62.27h.23c-1-8.8-.93-23.44-.93-37.28v-25H561.2v84.33H539.76c-9-16.48-30.62-55.72-34.8-65.45h-.24c.62,7.38.82,24.69.82,39.8v25.65Z"/><path d="M639.4,796.15H599.07v21.42h44.49l-2.16,14.95h-60V748.19h59.8v14.94h-42.1V781.2H639.4Z"/><path d="M676.74,763.13H651.12V748.19h69.4v14.94H695v69.39H676.74Z"/><path d="M754.78,763.13H729.16V748.19h69.4v14.94H773v69.39H754.78Z"/><path d="M884.8,790.06c0,23.47-14.09,43.68-41.49,43.68-26.46,0-40.31-19.23-40.31-43.39,0-24.54,15.3-43.39,41.5-43.39C869.16,747,884.8,764.25,884.8,790.06Zm-63-.08c0,16.47,7.23,28.92,22.17,28.92,16.23,0,22-13.58,22-28.61,0-15.95-6.53-28.49-22.25-28.49C828.48,761.8,821.83,773.56,821.83,790Z"/><text class="cls-1" transform="translate(0 919.96)">soluções</text></g></g></svg>